<svg width="33" height="33" viewBox="0 0 33 33" fill="none" xmlns="http://www.w3.org/2000/svg">
<mask id="mask0" mask-type="alpha" maskUnits="userSpaceOnUse" x="0" y="3" width="33" height="20">
<rect y="3" width="33" height="20" rx="2" fill="#C4C4C4"/>
</mask>
<g mask="url(#mask0)">
</g>
<g clip-path="url(#clip0)">
<path d="M32.4309 27.3104H0.568991C0.254783 27.3104 0 27.0556 0 26.7414V6.25869C0 5.94448 0.254783 5.6897 0.568991 5.6897H32.431C32.7452 5.6897 33 5.94448 33 6.25869V26.7414C32.9999 27.0557 32.7452 27.3104 32.4309 27.3104Z" fill="#82AFFF"/>
<path d="M32.4309 5.6897H30.8L0 21.6207V22.7586L32.7658 5.8108C32.6708 5.73971 32.5588 5.6897 32.4309 5.6897Z" fill="#FFE15A"/>
<path d="M0.569208 27.3104H2.20019L33.0002 11.3794V10.2415L0.234375 27.1892C0.329379 27.2603 0.441398 27.3104 0.569208 27.3104Z" fill="#FFE15A"/>
<path d="M32.7658 5.81079L0 22.7586V26.7413C0 26.9278 0.0955838 27.0854 0.234158 27.1891L32.9999 10.2414V6.25861C32.9999 6.07215 32.9044 5.91456 32.7658 5.81079Z" fill="#FF4B55"/>
<path d="M5.96982 7.92655L6.78953 10.3845L9.38048 10.4045C9.52537 10.4057 9.58544 10.5905 9.46891 10.6766L7.38456 12.2158L8.16612 14.6862C8.20982 14.8243 8.05255 14.9386 7.93467 14.8543L5.82673 13.3476L3.7188 14.8543C3.60098 14.9386 3.44365 14.8243 3.48735 14.6862L4.2689 12.2158L2.18456 10.6766C2.06796 10.5906 2.1281 10.4057 2.27299 10.4045L4.86393 10.3845L5.68365 7.92655C5.7296 7.78913 5.92393 7.78913 5.96982 7.92655Z" fill="#FFE15A"/>
</g>
<defs>
<clipPath id="clip0">
<rect width="33" height="33" fill="white"/>
</clipPath>
</defs>
</svg>
