<svg width="33" height="33" viewBox="0 0 33 33" fill="none" xmlns="http://www.w3.org/2000/svg">
<mask id="mask0" mask-type="alpha" maskUnits="userSpaceOnUse" x="0" y="0" width="33" height="20">
<rect width="33" height="20" rx="2" fill="#C4C4C4"/>
</mask>
<g mask="url(#mask0)">
</g>
<path d="M32.9999 12.8966H0V6.25869C0 5.94448 0.254783 5.6897 0.568991 5.6897H32.431C32.7452 5.6897 33 5.94448 33 6.25869L32.9999 12.8966Z" fill="#FF4B55"/>
<path d="M32.4309 27.3104H0.568991C0.254783 27.3104 0 27.0556 0 26.7414V20.1035H32.9999V26.7414C32.9999 27.0557 32.7452 27.3104 32.4309 27.3104Z" fill="#618C0F"/>
<path d="M32.9999 12.8965H0V20.103H32.9999V12.8965Z" fill="#FFE15A"/>
<path d="M16.7399 13.7871L17.3337 15.5675L19.2104 15.5821C19.4533 15.584 19.5541 15.894 19.3587 16.0384L17.849 17.1533L18.4151 18.9427C18.4884 19.1744 18.2246 19.3661 18.0269 19.2247L16.5 18.1333L14.9731 19.2246C14.7755 19.3659 14.5116 19.1742 14.5849 18.9426L15.151 17.1532L13.6412 16.0383C13.4458 15.8939 13.5465 15.5839 13.7895 15.582L15.6663 15.5674L16.2601 13.787C16.337 13.5567 16.663 13.5567 16.7399 13.7871Z" fill="#464655"/>
</svg>
