<svg width="33" height="33" viewBox="0 0 33 33" fill="none" xmlns="http://www.w3.org/2000/svg">
<mask id="mask0" mask-type="alpha" maskUnits="userSpaceOnUse" x="0" y="0" width="33" height="20">
<rect width="33" height="20" rx="2" fill="#C4C4C4"/>
</mask>
<g mask="url(#mask0)">
</g>
<path d="M0 20.1035H32.9999V26.7414C32.9999 27.0556 32.7452 27.3104 32.4309 27.3104H0.568991C0.254783 27.3104 0 27.0556 0 26.7414V20.1035Z" fill="#618C0F"/>
<path d="M0.568991 5.6897H32.431C32.7452 5.6897 33 5.94448 33 6.25869V12.8966H0V6.25862C0 5.94442 0.254783 5.6897 0.568991 5.6897Z" fill="#464655"/>
<path d="M32.9999 12.8962H0V20.1027H32.9999V12.8962Z" fill="#C8414B"/>
<path d="M32.9999 12.5176H0V13.6555H32.9999V12.5176Z" fill="#F5F5F5"/>
<path d="M32.9999 19.345H0V20.4829H32.9999V19.345Z" fill="#F5F5F5"/>
<path d="M19.5457 11.7058C20.0038 10.7611 20.4818 8.57275 20.4818 8.57275C20.4818 8.57275 19.0592 10.303 18.601 11.2476C18.5049 11.4456 18.5457 11.6733 18.6844 11.8274L13.4658 22.5868L13.8201 22.7586L19.0386 11.9992C19.2456 12.0128 19.4497 11.9038 19.5457 11.7058Z" fill="#F5F5F5"/>
<path d="M13.4538 11.7058C12.9956 10.7611 12.5176 8.57275 12.5176 8.57275C12.5176 8.57275 13.9402 10.303 14.3984 11.2476C14.4945 11.4456 14.4537 11.6733 14.315 11.8274L19.5336 22.5868L19.1794 22.7586L13.9608 11.9992C13.7538 12.0128 13.5497 11.9038 13.4538 11.7058Z" fill="#F5F5F5"/>
<path d="M19.3449 16.5C19.3449 19.6423 17.0238 22.1896 16.5001 22.1896C15.9764 22.1896 13.6553 19.6423 13.6553 16.5C13.6553 13.3576 15.9764 10.8103 16.5001 10.8103C17.0238 10.8103 19.3449 13.3576 19.3449 16.5Z" fill="#C8414B"/>
<path d="M18.776 19.2451C19.1111 18.431 19.345 17.4959 19.345 16.5C19.345 15.5041 19.1112 14.5691 18.776 13.7549C18.4409 14.569 18.207 15.5041 18.207 16.5C18.207 17.4959 18.4409 18.431 18.776 19.2451Z" fill="#464655"/>
<path d="M14.2243 13.7549C13.8892 14.569 13.6553 15.5041 13.6553 16.5C13.6553 17.4959 13.8891 18.4309 14.2243 19.2451C14.5594 18.431 14.7933 17.4959 14.7933 16.5C14.7933 15.5041 14.5594 14.5691 14.2243 13.7549Z" fill="#464655"/>
<path d="M16.4997 17.3536C16.8139 17.3536 17.0686 16.9715 17.0686 16.5001C17.0686 16.0288 16.8139 15.6467 16.4997 15.6467C16.1854 15.6467 15.9307 16.0288 15.9307 16.5001C15.9307 16.9715 16.1854 17.3536 16.4997 17.3536Z" fill="#F5F5F5"/>
<path d="M16.585 10.8103V15.6465C16.7401 15.3236 17.0152 14.3693 17.0152 13.2284C17.0152 12.0874 16.7401 11.1332 16.585 10.8103Z" fill="#F5F5F5"/>
<path d="M16.4147 10.8103C16.2595 11.1332 15.9844 12.0874 15.9844 13.2284C15.9844 14.3694 16.2595 15.3236 16.4147 15.6465V10.8103Z" fill="#F5F5F5"/>
<path d="M16.585 17.3533V22.1894C16.7401 21.8665 17.0152 20.9123 17.0152 19.7714C17.0152 18.6303 16.7401 17.6762 16.585 17.3533Z" fill="#F5F5F5"/>
<path d="M16.4147 17.3533C16.2595 17.6762 15.9844 18.6303 15.9844 19.7714C15.9844 20.9124 16.2595 21.8666 16.4147 22.1894V17.3533Z" fill="#F5F5F5"/>
</svg>
