<svg width="33" height="33" viewBox="0 0 33 33" fill="none" xmlns="http://www.w3.org/2000/svg">
<mask id="mask0" mask-type="alpha" maskUnits="userSpaceOnUse" x="0" y="0" width="33" height="20">
<rect width="33" height="20" rx="2" fill="#C4C4C4"/>
</mask>
<g mask="url(#mask0)">
</g>
<path d="M32.4309 27.3104H0.568991C0.254783 27.3104 0 27.0556 0 26.7414V6.25869C0 5.94448 0.254783 5.6897 0.568991 5.6897H32.431C32.7452 5.6897 33 5.94448 33 6.25869V26.7414C32.9999 27.0557 32.7452 27.3104 32.4309 27.3104Z" fill="#FF4B55"/>
<path d="M19.2032 17.9154L23.5495 14.7264H18.1671L16.4993 9.59351L14.8316 14.7264H9.44922L13.7955 17.9154L12.1406 23.0086L16.4951 19.8963L16.4993 19.8993L16.5036 19.8963L20.858 23.0086L19.2032 17.9154ZM20.0751 15.8643L18.8329 16.7758L18.5367 15.8643H20.0751ZM15.1319 17.4846L15.6584 15.8643H17.3403L17.8668 17.4846L16.4993 18.488L15.1319 17.4846ZM16.4993 13.2762L16.9705 14.7264H16.0281L16.4993 13.2762ZM12.9236 15.8643H14.462L14.1658 16.7758L12.9236 15.8643ZM14.291 20.0727L14.7616 18.6243L15.5293 19.1875L14.291 20.0727ZM18.2371 18.6243L18.7078 20.0727L17.4695 19.1876L18.2371 18.6243Z" fill="#5A8250"/>
</svg>
