<svg width="33" height="33" viewBox="0 0 33 33" fill="none" xmlns="http://www.w3.org/2000/svg">
<mask id="mask0" mask-type="alpha" maskUnits="userSpaceOnUse" x="0" y="0" width="33" height="20">
<rect width="33" height="20" rx="2" fill="#C4C4C4"/>
</mask>
<g mask="url(#mask0)">
</g>
<path d="M32.9999 16.5001H0V6.25869C0 5.94448 0.254783 5.6897 0.568991 5.6897H32.431C32.7452 5.6897 33 5.94448 33 6.25869L32.9999 16.5001Z" fill="#4173CD"/>
<path d="M0 16.5H32.9999V26.7414C32.9999 27.0556 32.7452 27.3104 32.4309 27.3104H0.568991C0.254783 27.3104 0 27.0556 0 26.7414V16.5Z" fill="#4173CD"/>
<path d="M32.9999 16.5H0V21.905H32.9999V16.5Z" fill="#FFE15A"/>
<path d="M0.568991 27.3102H32.431C32.7452 27.3102 33 27.0554 33 26.7412V21.905H0V26.7412C0 27.0555 0.254783 27.3102 0.568991 27.3102Z" fill="#618C0F"/>
<path d="M29.5337 11.4804L31.8626 11.0949L29.5337 10.7093L31.5378 9.4619L29.2386 9.99692L30.6128 8.07751L28.6934 9.45171L29.2284 7.15254L27.981 9.15665L27.5954 6.82764L27.2098 9.15658L25.9624 7.15248L26.4974 9.45165L24.578 8.07744L25.9522 9.99686L23.653 9.46183L25.6571 10.7093L23.3281 11.0949L25.6571 11.4804L23.653 12.7279L25.9521 12.1928L24.5779 14.1122L26.4973 12.738L25.9623 15.0372L27.2097 13.0331L27.5954 15.3621L27.9809 13.0332L29.2283 15.0373L28.6933 12.7381L30.6127 14.1123L29.2385 12.1929L31.5377 12.7279L29.5337 11.4804ZM27.5954 12.5173C26.8097 12.5173 26.173 11.8805 26.173 11.0949C26.173 10.3093 26.8097 9.67246 27.5954 9.67246C28.381 9.67246 29.0178 10.3093 29.0178 11.0949C29.0178 11.8805 28.381 12.5173 27.5954 12.5173Z" fill="#FFE15A"/>
<path d="M27.5951 12.1617C28.1843 12.1617 28.662 11.6841 28.662 11.0949C28.662 10.5057 28.1843 10.0281 27.5951 10.0281C27.006 10.0281 26.5283 10.5057 26.5283 11.0949C26.5283 11.6841 27.006 12.1617 27.5951 12.1617Z" fill="#FFE15A"/>
</svg>
